<svg xmlns="http://www.w3.org/2000/svg" xml:space="preserve" width="2048" height="2048" style="shape-rendering:geometricPrecision;text-rendering:geometricPrecision;image-rendering:optimizeQuality;fill-rule:evenodd;clip-rule:evenodd"><defs><style>.fil0{fill:none}.fil2{fill:#5d4037}</style></defs><g id="Layer_x0020_1"><path class="fil0" d="M0 0h2048v2048H0z"/><path class="fil0" d="M255.999 255.999h1536v1536h-1536z"/><g id="_208304288"><path id="_208304792" d="M1024 255.999c424.155 0 768.001 343.845 768.001 768.001 0 424.155-343.845 768.001-768.001 768.001-424.155 0-768.001-343.845-768.001-768.001 0-424.155 343.845-768.001 768.001-768.001z" style="fill:#ffd54f"/><path id="_208304624" class="fil2" d="M1274.19 717.549c44.184 0 80 35.817 80 80 0 44.185-35.816 80.002-80 80.002s-80-35.817-80-80.001c0-44.184 35.816-80.001 80-80.001z"/><path id="_208304432" class="fil2" d="M614.43 1166.61c61.42 475.258 768.856 475.258 819.14 0-134.49 288.254-571.554 389.166-819.14 0z"/><path id="_208304384" d="M918.813 846.683c-92.91-26.726-142.83-26.16-237.708.081 33.154-87.95 196.249-108.647 237.708-.081z" style="fill:#5d4037;fill-rule:nonzero"/></g></g></svg>